<?xml version="1.0" encoding="utf-8"?>
<!-- Generator: Adobe Illustrator 27.3.1, SVG Export Plug-In . SVG Version: 6.00 Build 0)  -->
<svg version="1.1" id="Layer_1" xmlns="http://www.w3.org/2000/svg" xmlns:xlink="http://www.w3.org/1999/xlink" x="0px" y="0px"
	 viewBox="0 0 30 30" style="enable-background:new 0 0 30 30;" xml:space="preserve">
<style type="text/css">
	.st0{enable-background:new    ;}
	.st1{fill:#FFFFFF;}
</style>
<g id="Group_137" transform="translate(-178 -754)">
	<circle id="Ellipse_7" cx="193" cy="769" r="15"/>
	<g class="st0">
		<path class="st1" d="M189,772c1,1,2.5,1.6,3.9,1.6c1.7,0,2.6-0.7,2.6-1.8c0-1.1-0.9-1.7-2.8-1.7c-0.6,0-1.5,0-1.7,0v-2.6
			c0.3,0,1.2,0,1.7,0c1.6,0,2.6-0.5,2.6-1.6c0-1.1-1.1-1.7-2.6-1.7c-1.4,0-2.6,0.5-3.6,1.5l-1.5-1.8c1.1-1.3,2.9-2.2,5.4-2.2
			c3.3,0,5.3,1.5,5.3,3.8c0,1.8-1.5,2.9-3.1,3.2c1.4,0.1,3.3,1.3,3.3,3.4c0,2.4-2.2,4.1-5.5,4.1c-2.6,0-4.5-1-5.5-2.2L189,772z"/>
	</g>
</g>
</svg>
