<?xml version="1.0" encoding="utf-8"?>
<!-- Generator: Adobe Illustrator 27.3.1, SVG Export Plug-In . SVG Version: 6.00 Build 0)  -->
<svg version="1.1" id="Layer_1" xmlns="http://www.w3.org/2000/svg" xmlns:xlink="http://www.w3.org/1999/xlink" x="0px" y="0px"
	 viewBox="0 0 30 30" style="enable-background:new 0 0 30 30;" xml:space="preserve">
<style type="text/css">
	.st0{fill:#FFFFFF;}
</style>
<g id="Group_138" transform="translate(-75 -754)">
	<circle id="Ellipse_5" cx="90" cy="769" r="15"/>
</g>
<g>
	<g>
		<path class="st0" d="M11.1,18c1,1,2.3,1.5,3.7,1.5c1.7,0,2.6-0.9,2.6-2.1c0-1.3-0.9-2.1-2.5-2.1c-1.2,0-2.1,0.4-2.9,1.2l-2.1-0.6
			v-8h9.6v2.6h-6.7v3.5c0.7-0.7,1.9-1.2,3.1-1.2c2.4,0,4.5,1.7,4.5,4.5c0,3-2.2,4.8-5.6,4.8c-2.4,0-4.2-0.8-5.4-2.1L11.1,18z"/>
	</g>
</g>
</svg>
